<mxfile host="app.diagrams.net" modified="2024-05-01T18:59:18.068Z" agent="Mozilla/5.0 (Windows NT 10.0; Win64; x64) AppleWebKit/537.36 (KHTML, like Gecko) Chrome/123.0.0.0 Safari/537.36 OPR/109.0.0.0" etag="tgAaTtmJCaXLJ_GkFkpO" version="24.2.5" type="google">
  <diagram id="C5RBs43oDa-KdzZeNtuy" name="Page-1">
    <mxGraphModel grid="1" page="1" gridSize="10" guides="1" tooltips="1" connect="1" arrows="1" fold="1" pageScale="1" pageWidth="827" pageHeight="1169" math="0" shadow="0">
      <root>
        <mxCell id="WIyWlLk6GJQsqaUBKTNV-0" />
        <mxCell id="WIyWlLk6GJQsqaUBKTNV-1" parent="WIyWlLk6GJQsqaUBKTNV-0" />
        <mxCell id="hKRM-IaExZuoGKQRcOPr-2" value="Produto" style="swimlane;fontStyle=1;align=center;verticalAlign=top;childLayout=stackLayout;horizontal=1;startSize=26;horizontalStack=0;resizeParent=1;resizeParentMax=0;resizeLast=0;collapsible=1;marginBottom=0;whiteSpace=wrap;html=1;" vertex="1" parent="WIyWlLk6GJQsqaUBKTNV-1">
          <mxGeometry x="30" y="180" width="260" height="268" as="geometry" />
        </mxCell>
        <mxCell id="hKRM-IaExZuoGKQRcOPr-3" value="- id: int&lt;div&gt;- nome_produto: String&lt;/div&gt;&lt;div&gt;- descricao_produto: String&lt;/div&gt;&lt;div&gt;- quantidade_estoque: int&lt;/div&gt;&lt;div&gt;- preco: Float&lt;/div&gt;&lt;div&gt;- data_cadastro: Date&lt;br&gt;&lt;div&gt;&lt;br&gt;&lt;/div&gt;&lt;/div&gt;" style="text;strokeColor=none;fillColor=none;align=left;verticalAlign=top;spacingLeft=4;spacingRight=4;overflow=hidden;rotatable=0;points=[[0,0.5],[1,0.5]];portConstraint=eastwest;whiteSpace=wrap;html=1;" vertex="1" parent="hKRM-IaExZuoGKQRcOPr-2">
          <mxGeometry y="26" width="260" height="104" as="geometry" />
        </mxCell>
        <mxCell id="hKRM-IaExZuoGKQRcOPr-4" value="" style="line;strokeWidth=1;fillColor=none;align=left;verticalAlign=middle;spacingTop=-1;spacingLeft=3;spacingRight=3;rotatable=0;labelPosition=right;points=[];portConstraint=eastwest;strokeColor=inherit;" vertex="1" parent="hKRM-IaExZuoGKQRcOPr-2">
          <mxGeometry y="130" width="260" height="8" as="geometry" />
        </mxCell>
        <mxCell id="hKRM-IaExZuoGKQRcOPr-5" value="+ criarProduto(): boolean&lt;div&gt;+ alterarProduto(id: int): boolean&lt;/div&gt;&lt;div&gt;+ deletarProduto(id: int): boolean&lt;/div&gt;&lt;div&gt;+ pesquisarProduto(id: int): String&lt;/div&gt;&lt;div&gt;+ pesquisarProduto(nome_produto: String): String&amp;nbsp;&lt;/div&gt;" style="text;strokeColor=none;fillColor=none;align=left;verticalAlign=top;spacingLeft=4;spacingRight=4;overflow=hidden;rotatable=0;points=[[0,0.5],[1,0.5]];portConstraint=eastwest;whiteSpace=wrap;html=1;" vertex="1" parent="hKRM-IaExZuoGKQRcOPr-2">
          <mxGeometry y="138" width="260" height="130" as="geometry" />
        </mxCell>
      </root>
    </mxGraphModel>
  </diagram>
</mxfile>
